<?xml version="1.0" encoding="UTF-8"?><svg id="Capa_1" xmlns="http://www.w3.org/2000/svg" width="235.51" height="210.11" viewBox="0 0 235.51 210.11"><defs><style>.cls-1{fill:#fff;stroke-width:0px;}</style></defs><path class="cls-1" d="M41.22,1.03c10.66,4.96,20.49,9.79,30.52,14.17,35.05,15.3,69.27,13.1,102.64-5.25,5.94-3.26,11.91-6.47,18.34-9.95.18,1.37.58,2.26.32,2.84-5.04,11.17-3.22,22.97-2.3,34.4.68,8.46,4.26,16.64,5.95,25.07,1.98,9.88,2.22,19.94-.5,29.72-1.39,5-3.95,9.67-6.22,15.03,1.26.62,2.96,1.55,4.73,2.31,32.25,13.69,47.81,46.79,37.81,80.5-5.04,16.98-7.7,19.5-25.52,19.78-24.31.38-48.63.03-72.95-.03-1,0-2-.08-2.99-.21-6.94-.96-8.08-2.38-6.3-9.19,1.47-5.6,3.06-11.25,5.37-16.53,5.85-13.38,16.15-21.66,30.4-25.01,2.59-.61,5.18-1.25,7.69-2.1,13.22-4.45,20.53-14.02,20.79-27.95.11-5.57-.8-11.17-1.36-18.16-3,2.16-4.91,3.29-6.54,4.74-6.85,6.14-14.82,10.06-23.99,9.52-12.68-.74-22.27,4.19-31.05,12.9-9.38,9.3-8.44,8.39-17.91.06-1.63-1.43-3.31-2.8-4.85-4.32-5.86-5.81-12.77-8.67-21.14-8.32-11.67.49-21.95-3.04-30.41-11.39-1.08-1.07-2.84-1.46-4.29-2.16-.75,1.56-1.9,3.05-2.17,4.69-.56,3.44-.96,6.95-.89,10.43.29,13.93,6.92,23.7,19.91,28.83,4.31,1.7,8.88,2.73,13.33,4.09,12.49,3.82,21.7,11.53,26.78,23.61,2.63,6.26,4.55,12.82,6.62,19.3,1.3,4.07-.5,6.48-4.64,6.96-3.47.4-6.98.74-10.46.73-24.32-.09-48.64-.09-72.95-.52-11.6-.21-14.52-2.92-18.55-13.83-5.81-15.73-5.39-31.84-1.82-47.74,2.37-10.53,10.02-18.37,18.14-25.12,5.72-4.76,12.16-8.7,18.52-12.6,3.33-2.04,4.86-3.76,2.96-7.84-7.41-15.93-7.55-32.44-3.62-49.3,3.8-16.3,6.24-32.73,2.61-49.45-.13-.61-.02-1.28-.02-2.69ZM80.09,49.47c-17.19-2.07-35.75,18.81-36.07,32.57-.5,21.21,18.87,37.45,34.61,37.45,19.08,0,35.82-15.93,36.18-34.72.35-18.48-16-35.11-34.71-35.3ZM154.63,49.45c-19.07-.11-33.87,15.04-34.1,34.89-.22,19.37,14.76,34.8,34.04,35.07,18.75.26,34.5-15.86,34.54-35.33.04-19.27-15.14-34.51-34.48-34.63ZM98.7,122.26c5.43,4.3,10.49,8.59,15.9,12.38,1.31.92,4.34.97,5.61.07,4.59-3.27,8.87-7.01,13.02-10.84.83-.77,1.31-3.33.72-4.01-5.54-6.45-11.35-12.67-16.61-18.44-5.99,6.71-12.21,13.67-18.63,20.84Z"/><path class="cls-1" d="M64.18,89.61c-.03-8.96,6.87-16.04,15.63-16.04,8.65,0,15.63,6.88,15.65,15.44.03,9.46-6.76,16.7-15.56,16.62-8.77-.08-15.69-7.14-15.72-16.02Z"/><path class="cls-1" d="M171.24,89.26c.04,9.14-6.56,16.17-15.31,16.32-8.57.15-16.16-7.12-16.28-15.59-.13-9,6.72-16.51,15.12-16.57,9.05-.07,16.44,7.04,16.48,15.85Z"/></svg>